<?xml version="1.0" standalone="no"?><!DOCTYPE svg PUBLIC "-//W3C//DTD SVG 1.1//EN" "http://www.w3.org/Graphics/SVG/1.1/DTD/svg11.dtd"><svg t="1576050197518" class="icon" viewBox="0 0 1024 1024" version="1.1" xmlns="http://www.w3.org/2000/svg" p-id="2557" xmlns:xlink="http://www.w3.org/1999/xlink" width="200" height="200"><defs><style type="text/css"></style></defs><path d="M512.03214248 897.71428584c-62.00357168 0-321.42857168-243.09642832-321.4285708-482.14285752a321.42857168 321.42857168 0 0 1 642.85714248 0c0 239.04642833-259.425 482.14285752-321.42857168 482.14285752z" fill="#1296db" p-id="2558"></path><path d="M512.03214248 962c-68.20714248 0-353.57142832-272.28214248-353.57142832-540a353.57142832 353.57142832 0 1 1 707.14285752 0c0 267.71785752-285.36428584 540-353.5714292 540z m0-835.71428584a289.28571416 289.28571416 0 0 0-289.28571416 289.28571416c0 201.95357167 213.87857167 450 289.28571416 450 71.38928584 0 289.28571416-246.05357168 289.28571504-450a289.28571416 289.28571416 0 0 0-289.28571504-289.28571416z m0 385.71428584a96.42857168 96.42857168 0 1 1 96.42857168-96.42857168 96.42857168 96.42857168 0 0 1-96.42857168 96.42857168z" fill="#ffffff" p-id="2559"></path></svg>